<svg id="Layer_1" data-name="Layer 1" xmlns="http://www.w3.org/2000/svg" viewBox="0 0 574.35 574.35"><defs><style>.cls-1{fill:#f5c096;}</style></defs><path class="cls-1" d="M0,287.23C0,128.31,128.43-.1,287.34,0c158.71.1,287,128.41,287,287.05S445.66,574.44,286.94,574.35,0,445.93,0,287.23ZM287.1,538.4c138.64.19,250.94-112,251.24-250.95.3-138.44-112.07-251-250.9-251.4S35.94,148.35,36,287.31A251,251,0,0,0,287.1,538.4Zm33.81-199c-.69-17.81,5.33-33,17.95-45.52,3.9-3.87,7.89-7.66,11.72-11.61,7.08-7.28,14.58-14.23,21-22.06,34.6-42.25,27.8-101.78-15.11-133-21.42-15.56-45.82-21.37-72-21.18-46.07.32-85.72,28.17-101.46,71.54-.72,2-1.34,4-2.07,6.18l56.7,23.88c.67-2,1.19-3.58,1.72-5.14,7.87-23.18,26.58-36.66,51-36.32,16.19.23,28.8,7.35,35.73,22.13s4.78,29.15-5.67,41.58c-6.51,7.74-14.18,14.51-21.34,21.7-8.33,8.38-17.26,16.24-24.88,25.22-17.08,20.14-20,44.2-17.71,69.57h64.4C320.93,343.62,321,341.48,320.91,339.35Zm-35.25,129c25.44.17,45-18.68,45.09-43.48.09-23.08-19.33-42.27-42.92-42.4-23.91-.12-42.64,18.69-42.64,42.84C245.18,448.48,263.76,468.23,285.66,468.38Z"/></svg>