<svg id="Layer_2" data-name="Layer 2" xmlns="http://www.w3.org/2000/svg" viewBox="0 0 1088.15 1421.12"><defs><style>.cls-1{fill:#fdba21;}.cls-1,.cls-2,.cls-3{stroke:#552084;}.cls-1,.cls-2,.cls-3,.cls-4,.cls-5{stroke-miterlimit:10;stroke-width:10px;}.cls-2,.cls-3,.cls-4,.cls-5{fill:none;}.cls-3{stroke-dasharray:12.04 12.04;}.cls-4{stroke:#de3d40;}.cls-5{stroke:#e0e0e0;}</style></defs><rect class="cls-1" x="485.54" y="439.49" width="352.58" height="542.64" transform="translate(1372.65 48.98) rotate(90)"/><path class="cls-2" d="M710,1265.85c-306.54,0-555-248.5-555-555s248.5-555,555-555"/><polyline class="cls-2" points="710.04 155.78 933.15 155.78 933.15 1265.85 710.04 1265.85"/><path class="cls-2" d="M390.51,887.1a176.29,176.29,0,1,1,0-352.58"/><path class="cls-2" d="M390.51,534.52c2,0,4,0,6,.1"/><path class="cls-3" d="M408.53,535.43a176.3,176.3,0,0,1-6,351.27"/><path class="cls-2" d="M396.51,887q-3,.11-6,.1"/><circle class="cls-4" cx="774.37" cy="710.12" r="72.01"/><polyline class="cls-4" points="845.01 698.42 882.19 698.42 882.19 723.21 844.66 723.21"/><line class="cls-5" x1="882.19" y1="578.09" x2="882.19" y2="840.78"/></svg>